<?xml version="1.0" encoding="UTF-8" standalone="no"?>
<svg
   version="1.1"
   width="311.811"
   height="311.811"
   id="svg237"
   viewBox="0 0 311.811 311.811"
   sodipodi:docname="third-eye-chakra-seeklogo.com.cdr"
   xmlns:inkscape="http://www.inkscape.org/namespaces/inkscape"
   xmlns:sodipodi="http://sodipodi.sourceforge.net/DTD/sodipodi-0.dtd"
   xmlns="http://www.w3.org/2000/svg"
   xmlns:svg="http://www.w3.org/2000/svg">
  <defs
     id="defs241" />
  <sodipodi:namedview
     id="namedview239"
     pagecolor="#ffffff"
     bordercolor="#666666"
     borderopacity="1.0"
     inkscape:pageshadow="2"
     inkscape:pageopacity="0.0"
     inkscape:pagecheckerboard="0" />
  <g
     id="Layer1000">
    <path
       d="m 90.7401,153.6472 c 0,-12.0079 2.9495,-16.9317 5.4203,-26.5667 2.3844,0.9984 1.526,0.5582 3.0266,2.2931 l 24.7752,42.9401 c 3.7915,6.3143 24.6365,41.2493 25.4682,45.1042 -12.5722,2.9874 -32.1435,-10.1981 -41.069,-19.5584 C 97.1248,186.0754 90.7401,171.241 90.7401,153.6472 Z m 70.2498,63.9687 c 0.5836,-3.6534 39.9243,-69.9819 48.6388,-85.5251 1.6287,-2.9049 0.9746,-2.9149 3.4883,-4.8034 2.056,1.8611 2.5218,3.9077 3.3717,6.6963 2.7613,9.0602 3.667,16.2009 2.8417,25.9913 -0.9421,11.1736 -4.9156,20.9262 -9.9823,28.7524 -9.7503,15.0605 -32.2265,30.7978 -48.3582,28.8885 z m 45.8266,-91.2924 c -1.1741,2.7833 -48.6634,85.7891 -51.5156,87.7616 -3.2444,-1.5059 -25.1281,-41.9416 -27.0561,-45.1042 -2.4575,-4.0311 -25.3498,-41.7506 -25.1514,-45.9031 19.9741,-1.5564 68.4078,-0.0615 93.7641,-0.1841 5.5643,-0.0269 12.2091,-1.9037 9.959,3.4298 z m -103.7507,-8.9721 c 0.496,-3.3758 6.2973,-9.3318 8.9572,-11.4875 22.5814,-18.2991 49.1802,-22.2741 75.3966,-7.8069 5.6762,3.1323 19.0251,13.8774 19.9431,19.4302 z m 101.2996,86.5507 c 1.9479,-3.4102 5.4293,-5.9463 8.2064,-10.1575 11.3692,-17.2407 15.5076,-37.0104 10.0806,-57.7338 -1.4138,-5.3985 -3.9643,-8.6796 -3.122,-12.9912 1.6227,-8.307 -1.655,-7.2292 -6.7522,-9.7787 -2.2857,-1.1433 -6.7921,-7.4878 -8.4382,-9.351 19.7692,-1.7242 28.7109,8.2563 35.1173,20.7266 10.1662,19.7874 1.3155,13.5197 26.0472,29.0307 -0.1385,0.1541 -0.3608,0.3439 -0.4568,0.4215 -3.5159,2.8386 -10.6827,5.0252 -16.2147,10.9047 -9.624,10.2284 -8.6581,40.2498 -44.4676,38.9287 z M 45.092,153.5571 c 6.1209,-2.5275 13.2723,-7.142 16.9769,-10.9408 11.1972,-11.4809 7.4295,-38.4845 43.9151,-38.9308 -1.6066,3.4583 -1.9849,2.1756 -4.3863,5.2982 -8.534,11.0954 -11.8025,0.4735 -10.6156,15.0561 0.6064,7.4513 -13.2585,28.0126 0.961,59.532 3.3805,7.4933 9.7217,16.1196 14.1633,20.2366 -26.0456,2.3574 -32.5389,-16.2977 -38.835,-30.7272 -5.7136,-13.0944 -17.187,-15.2956 -22.1794,-19.5241 z m 72.4597,59.5201 c 2.9474,1.1554 5.175,2.9459 8.3096,4.32 17.1834,7.533 18.4858,2.1203 26.8338,10.3265 h 5.0851 c 3.0576,-3.1666 3.0307,-4.0314 8.0264,-4.8995 25.7709,-4.4777 26.6216,-13.3282 35.501,-13.6127 9.7188,-0.3114 19.7254,0.7037 28.8299,-6.0011 12.1369,-8.9383 13.9837,-19.1039 19.1938,-29.624 5.867,-11.8465 22.552,-14.9596 29.7593,-17.9283 0.0158,-6.3729 -5.835,-4.4997 -11.8819,-7.3429 -4.4117,-2.0745 -7.7184,-4.2019 -11.318,-6.7266 -11.6455,-8.1682 -10.507,-32.8021 -32.5184,-40.6702 -16.9181,-6.0475 -21.0366,1.7871 -30.0299,-5.9525 -5.3167,-2.3205 -9.2666,-5.0567 -15.5876,-7.1575 -6.0597,-2.0138 -12.3533,-2.1738 -17.3631,-3.721 h -12.3538 c -5.183,2.0573 -19.4658,2.7963 -27.9975,9.6522 -7.0679,-0.9928 5.6155,1.8913 -1.7597,-0.7467 -2.5095,-0.8978 -2.9108,-1.1936 -5.4836,-0.3609 1.4955,3.4066 -0.3856,1.7736 4.1763,2.7554 -6.3204,4.6849 -6.1068,2.6773 -15.0024,3.0488 -36.5972,1.5293 -31.9724,30.4409 -46.5572,42.9314 -3.7991,3.2535 -12.182,7.8067 -17.8991,9.2026 -3.8124,0.9308 -3.6378,0.117 -5.7817,2.1382 0.5629,3.9502 1.4791,3.4447 5.4534,4.3932 24.7399,5.9041 26.0403,22.9963 31.3748,31.7628 19.3582,31.8108 37.0464,12.921 48.9905,24.2128 z"
       style="fill:#765299;fill-rule:evenodd"
       id="path2" />
    <path
       d="m 151.8255,196.3817 c 3.0944,0.9672 1.0404,-0.7086 3.1077,2.9 l 2.7067,-1.277 c 0.8328,3.498 1.097,2.7697 -1.4355,5.1274 -2.506,-0.8302 -7.1184,-4.2327 -4.3789,-6.7504 z m 5.9207,1.043 c 0.7096,-3.5464 0.4245,-4.2747 4.0337,-5.0027 -0.4128,3.4247 -0.4715,4.227 -4.0337,5.0027 z m -9.99,-6.1538 c 2.7564,-0.7106 0.6443,-1.911 2.7771,0.6349 1.9682,2.3487 0.4474,3.1889 0.2507,3.6564 -3.6724,-1.4532 -2.7559,-2.0857 -3.0278,-4.2913 z m 16.5721,-4.8728 c 0.631,1.0719 1.6479,-0.4663 0.4036,2.8478 -2.023,5.3878 -6.5901,-0.9306 -0.4036,-2.8478 z m -19.4716,-1.6402 c 2.7697,0.8387 4.0196,2.2363 2.3138,5.0524 -2.2785,-1.0479 -0.4537,1.6176 -2.1461,-1.6058 -1.2261,-2.336 -0.9398,-1.5329 -0.1677,-3.4466 z m 21.0928,0.9893 c -2.2844,-2.2266 -1.1036,-3.9006 2.4916,-5.225 0.3734,2.9244 -0.2624,3.7625 -2.4916,5.225 z m -24.199,-6.9018 c 3.0511,1.2766 2.5692,1.4246 3.1376,4.9115 -3.154,-0.6499 -5.8336,-1.8099 -3.1376,-4.9115 z m 27.1011,0.9206 c -1.4012,-2.6616 -0.0228,-4.3507 2.9733,-5.3688 -0.096,1.9087 0.6676,0.8289 -0.4676,3.3392 -1.4645,3.2378 -0.2747,1.0852 -2.5057,2.0296 z m -30.7763,-6.9537 c 2.4796,1.0131 2.719,1.612 3.0539,5.2659 -3.2549,-0.8931 -4.5673,-2.2073 -3.0539,-5.2659 z m 34.3898,1.107 c -0.0556,-0.1188 -1.9042,0.2866 -0.3754,-3.3576 1.3964,-3.3285 0.3421,-0.8335 2.182,-2.0171 0.1869,0.3439 2.6004,-1.5157 0.4069,3.404 -1.509,3.3848 -0.4435,0.856 -2.2135,1.9707 z m -35.5224,-1.6975 c -2.0159,-0.9172 -2.7242,-1.8271 -2.855,-4.5566 2.3218,-0.4537 2.1369,-0.6845 3.2391,1.3388 1.3641,2.5039 0.4425,2.0458 -0.3841,3.2178 z m 40.0214,-4.2767 c -3.729,-1.6786 -2.2906,-4.1927 0.9211,-5.1407 1.8125,2.8335 0.7703,2.5011 -0.9211,5.1407 z m -45.6328,-6.6497 c 2.5323,0.5557 4.0055,2.1443 2.2888,4.9286 -2.2888,-0.7715 -1.2445,1.4067 -2.4642,-2.0575 -0.9777,-2.7769 -0.2354,-1.0545 0.1754,-2.8711 z m 46.9754,0.0607 c 0.4988,-3.4783 1.0051,-4.057 3.9274,-4.0327 -0.189,1.3508 -0.009,2.2366 -0.9375,3.3671 -1.7398,2.1185 0.8233,1.4456 -2.9899,0.6656 z m -47.8481,-4.4212 c 1.8852,3.38 -0.349,3.3077 -0.4522,3.5111 -2.4957,-1.9262 -2.4138,-2.1173 -2.8806,-5.2544 2.5077,0.4932 1.9408,-0.7521 3.3328,1.7433 z m 17.5701,-4.6802 c 8.9833,-7.4047 13.2984,-1.718 13.2882,3.1935 -0.0108,5.3442 -4.4176,10.1031 -13.4206,3.2052 z m 34.2456,3.9745 c -1.1928,-3.1129 -0.0184,-4.2752 3.0903,-5.2759 -0.1931,3.868 -0.431,4.3586 -3.0903,5.2759 z m -57.688,-6.9755 c 1.7818,0.7841 2.3863,-0.8855 3.0112,5.3883 -3.0058,-1.2056 -4.676,-2.4839 -3.0112,-5.3883 z m 60.5123,0.7736 c 0.2181,-4.2908 0.4209,-4.1292 4.1074,-4.9007 -0.5529,4.0116 -0.0297,4.2539 -4.1074,4.9007 z m -61.4157,-1.8222 c -3.0502,-0.8282 -2.5536,-1.0176 -3.3375,-4.2654 2.3221,-0.2728 2.3992,-0.5396 3.5116,1.4634 1.318,2.3733 0.3779,1.571 -0.1741,2.802 z m 65.4388,-3.9879 c -0.4865,-2.3161 -1.456,-0.6383 0.1762,-3.5033 1.231,-2.1603 1.0351,-0.9342 2.138,-1.4911 1.8171,2.8222 0.5795,4.3215 -2.3142,4.9944 z m -68.489,-4.6677 c 1.7004,3.888 0.1273,2.2017 -0.4028,3.1292 -6.6991,-1.8171 -1.7543,-8.0614 0.4028,-3.1292 z m 71.2536,-1.0601 c 0.5024,-3.2017 0.6579,-4.0322 2.8471,-5.1986 0.5539,0.6317 2.3295,0.3075 0.59,3.2537 -1.4589,2.4706 -0.7688,1.233 -3.4371,1.9449 z m -78.4393,-6.9509 c 3.5841,1.1311 3.4022,1.0653 4.0967,5.0436 -3.7446,-0.6814 -3.4462,-1.3592 -4.0967,-5.0436 z m 83.558,1.1014 -4.9924,-4.2872 c 0.9792,-0.5949 0.3546,-0.6656 2.192,-0.9995 2.6736,-0.486 3.9566,0.4461 4.7105,0.7636 0.5037,2.2115 -0.1073,3.0312 -1.9101,4.5231 z m -6.4533,-4.2872 c -1.5385,2.4206 -3.8499,2.4457 -5.3845,0 2.6493,-1.6871 3.0724,-1.5124 5.3845,0 z m -13.6578,0 c -1.5188,2.4677 -3.8309,2.4063 -5.3793,0 1.0135,-0.6735 -1.4958,-0.9734 2.7405,-1.0279 2.5548,-0.0331 1.7625,0.475 2.6388,1.0279 z m -13.5507,0 c -1.5188,2.4677 -3.8306,2.4063 -5.3794,0 1.0136,-0.6735 -1.4957,-0.9734 2.7406,-1.0279 2.5548,-0.0331 1.7625,0.475 2.6388,1.0279 z m -13.5507,0 c -1.5959,2.5932 -3.9218,2.2601 -5.6424,0 1.2208,-0.7158 -1.4901,-0.99 3.001,-1.0374 2.5454,-0.0266 1.7766,0.4919 2.6414,1.0374 z m -7.0001,0 c -1.5508,2.2347 -3.9223,2.6316 -5.2769,0 2.5823,-1.8571 3.1136,-1.3368 5.2769,0 z m -6.8351,0 c -1.972,2.3451 -3.4222,2.5425 -5.3579,0 1.1493,-0.6748 -1.4639,-1.0827 3.011,-1.0016 1.9428,0.0351 1.4926,0.5258 2.3469,1.0016 z m -6.7153,0 c -1.5508,2.2347 -3.9223,2.6316 -5.277,0 2.5823,-1.8571 3.1137,-1.3368 5.277,0 z m -6.8354,0 c -1.9662,2.3379 -3.4225,2.5512 -5.3446,0 1.1493,-0.6799 -1.5026,-1.0832 2.9971,-1.0016 1.9431,0.0351 1.493,0.5258 2.3475,1.0016 z m -11.1767,-0.7091 c 3.6107,-0.4727 2.0607,-0.7618 4.4614,0.7091 -1.9721,3.0503 -4.1026,3.4483 -4.4614,-0.7091 z m 72.703,0.6965 c -1.8796,2.6778 -4.0224,2.7689 -5.8795,-0.1454 1.1757,-0.9926 0.3145,-1.0658 3.4135,-0.8727 4.2511,0.265 0.5959,-0.432 2.466,1.0181 z m -16.8346,1.6604 c -2.7357,-0.0707 -1.9301,-0.7613 -2.5956,-1.8058 1.4596,-1.2323 -1.4524,-0.8397 2.5078,-0.8919 4.9696,-0.0659 1.6596,0.2158 2.9922,1.0499 -0.8315,1.1692 0.7623,1.7425 -2.9044,1.6478 z m -13.5507,0 c -2.7354,-0.0707 -1.9301,-0.7613 -2.5956,-1.8058 1.4596,-1.2323 -1.4525,-0.8397 2.5077,-0.8919 4.9697,-0.0659 1.6597,0.2158 2.9925,1.0499 -0.8317,1.1692 0.7621,1.7425 -2.9046,1.6478 z m 1.7533,84.0846 c 2.8522,-1.9725 50.3415,-84.9783 51.5156,-87.7616 2.2501,-5.3335 -4.3947,-3.4567 -9.959,-3.4298 -25.3563,0.1226 -73.79,-1.3723 -93.7641,0.1841 -0.1984,4.1525 22.6939,41.872 25.1514,45.9031 1.928,3.1626 23.8117,43.5983 27.0561,45.1042 z"
       style="fill:#fefefe;fill-rule:evenodd"
       id="path4" />
    <path
       d="m 204.3654,203.9021 c 35.8095,1.3211 34.8436,-28.7003 44.4676,-38.9287 5.532,-5.8795 12.6988,-8.0661 16.2147,-10.9047 0.096,-0.0776 0.3183,-0.2674 0.4568,-0.4215 -24.7317,-15.511 -15.881,-9.2433 -26.0472,-29.0307 -6.4064,-12.4703 -15.3481,-22.4508 -35.1173,-20.7266 1.6461,1.8632 6.1525,8.2077 8.4382,9.351 5.0972,2.5495 8.3749,1.4717 6.7522,9.7787 -0.8423,4.3116 1.7082,7.5927 3.122,12.9912 5.427,20.7234 1.2886,40.4931 -10.0806,57.7338 -2.7771,4.2112 -6.2585,6.7473 -8.2064,10.1575 z"
       style="fill:#fefefe;fill-rule:evenodd"
       id="path6" />
    <path
       d="m 45.092,153.5571 c 4.9924,4.2285 16.4658,6.4297 22.1794,19.5241 6.2961,14.4295 12.7894,33.0846 38.835,30.7272 -4.4416,-4.117 -10.7828,-12.7433 -14.1633,-20.2366 -14.2195,-31.5194 -0.3546,-52.0807 -0.961,-59.532 -1.1869,-14.5826 2.0816,-3.9607 10.6156,-15.0561 2.4014,-3.1226 2.7797,-1.8399 4.3863,-5.2982 -36.4856,0.4463 -32.7179,27.4499 -43.9151,38.9308 -3.7046,3.7988 -10.856,8.4133 -16.9769,10.9408 z"
       style="fill:#fefefe;fill-rule:evenodd"
       id="path8" />
    <path
       d="m 90.7401,153.6472 c 0,17.5938 6.3847,32.4282 17.6213,44.2123 8.9255,9.3603 28.4968,22.5458 41.069,19.5584 -0.8317,-3.8549 -21.6767,-38.7899 -25.4682,-45.1042 L 99.187,129.3736 c -1.5006,-1.7349 -0.6422,-1.2947 -3.0266,-2.2931 -2.4708,9.635 -5.4203,14.5588 -5.4203,26.5667 z"
       style="fill:#fefefe;fill-rule:evenodd"
       id="path10" />
    <path
       d="m 160.9899,217.6159 c 16.1317,1.9093 38.6079,-13.828 48.3582,-28.8885 5.0667,-7.8262 9.0402,-17.5788 9.9823,-28.7524 0.8253,-9.7904 -0.0804,-16.9311 -2.8417,-25.9913 -0.8499,-2.7886 -1.3157,-4.8352 -3.3717,-6.6963 -2.5137,1.8885 -1.8596,1.8985 -3.4883,4.8034 -8.7145,15.5432 -48.0552,81.8717 -48.6388,85.5251 z"
       style="fill:#fefefe;fill-rule:evenodd"
       id="path12" />
    <path
       d="m 103.0658,117.3514 104.2969,0.1358 c -0.918,-5.5528 -14.2669,-16.2979 -19.9431,-19.4302 -26.2164,-14.4672 -52.8152,-10.4922 -75.3966,7.8069 -2.6599,2.1557 -8.4612,8.1117 -8.9572,11.4875 z"
       style="fill:#fefefe;fill-rule:evenodd"
       id="path14" />
    <path
       d="m 148.0287,152.2547 -0.1324,6.3987 c 9.003,6.8979 13.4098,2.139 13.4206,-3.2052 0.0102,-4.9115 -4.3049,-10.5982 -13.2882,-3.1935 z"
       style="fill:#765299;fill-rule:evenodd"
       id="path16" />
    <path
       d="m 154.9332,199.2817 c -2.0673,-3.6086 -0.0133,-1.9328 -3.1077,-2.9 -2.7395,2.5177 1.8729,5.9202 4.3789,6.7504 2.5325,-2.3577 2.2683,-1.6294 1.4355,-5.1274 z"
       style="fill:#765299;fill-rule:evenodd"
       id="path18" />
    <path
       d="m 192.0126,128.3527 4.9924,4.2872 c 1.8028,-1.4919 2.4138,-2.3116 1.9101,-4.5231 -0.7539,-0.3175 -2.0369,-1.2496 -4.7105,-0.7636 -1.8374,0.3339 -1.2128,0.4046 -2.192,0.9995 z"
       style="fill:#765299;fill-rule:evenodd"
       id="path20" />
    <path
       d="m 292.6364,156.2292 c 3.2562,-0.4044 3.4916,-0.1967 5.0014,-2.3239 -2.1864,-2.8135 -1.6568,-2.1029 -6.4592,-2.5968 0.6781,3.4009 0.4079,2.0235 1.4578,4.9207 z"
       style="fill:#765299;fill-rule:evenodd"
       id="path22" />
    <path
       d="m 14.1732,153.6472 c 1.6404,2.7769 1.696,2.3108 5.0142,2.7374 0.7972,-2.5817 1.4725,-3.0176 0.2914,-5.0262 -4.2649,0.6169 -2.9515,-0.3273 -5.3056,2.2888 z"
       style="fill:#765299;fill-rule:evenodd"
       id="path24" />
    <path
       d="m 120.2299,142.6787 c 0.5301,-0.9275 2.1032,0.7588 0.4028,-3.1292 -2.1571,-4.9322 -7.1019,1.3121 -0.4028,3.1292 z"
       style="fill:#765299;fill-rule:evenodd"
       id="path26" />
    <path
       d="m 39.5228,163.5842 c 0.0039,0.008 0.271,4.6818 5.3282,1.8068 -3.088,-6.0492 -5.2157,-1.8816 -5.3282,-1.8068 z"
       style="fill:#765299;fill-rule:evenodd"
       id="path28" />
    <path
       d="m 251.0586,186.4603 c 0.941,-0.5626 1.3684,1.0184 2.3103,-2.5605 0.6624,-2.5174 0.1027,-1.6317 -0.6064,-2.9108 -1.1979,0.5665 -1.4353,-0.3372 -2.3003,2.064 -1.7078,4.7405 0.3536,3.0148 0.5964,3.4073 z"
       style="fill:#765299;fill-rule:evenodd"
       id="path30" />
    <path
       d="m 172.4651,173.9193 c 1.77,-1.1147 0.7045,1.4141 2.2135,-1.9707 2.1935,-4.9197 -0.22,-3.0601 -0.4069,-3.404 -1.8399,1.1836 -0.7856,-1.3114 -2.182,2.0171 -1.5288,3.6442 0.3198,3.2388 0.3754,3.3576 z"
       style="fill:#765299;fill-rule:evenodd"
       id="path32" />
    <path
       d="m 206.7906,94.0246 c 4.7175,3.0793 5.0342,0.3703 5.6122,0 -0.2149,-0.3091 0.8717,-1.8868 -2.9239,-1.8822 -4.1371,0.0049 -2.0184,1.2901 -2.6883,1.8822 z"
       style="fill:#765299;fill-rule:evenodd"
       id="path34" />
    <path
       d="m 94.382,211.7088 c -3.8514,-0.452 -1.8829,0.3454 -2.8027,1.561 0.6509,0.5705 -0.7196,1.4407 3.2319,1.5841 3.4178,0.1239 0.4384,0.2374 2.3779,-0.8264 -0.6417,-1.2868 -0.1498,-2.0068 -2.8071,-2.3187 z"
       style="fill:#765299;fill-rule:evenodd"
       id="path36" />
    <path
       d="m 220.2574,94.9278 c 0.7533,1.3341 -1.1096,1.2081 1.9861,1.9561 3.6613,0.885 2.8842,-0.5272 3.5502,-1.0527 -0.8079,-0.9477 1.3869,-0.8663 -2.1019,-1.7224 -4.1499,-1.0184 -3.2186,0.6773 -3.4344,0.819 z"
       style="fill:#765299;fill-rule:evenodd"
       id="path38" />
    <path
       d="m 238.4307,203.3131 c 4.2529,0.0796 4.4053,-0.158 4.6819,-4.5965 -3.79,0.7049 -3.3285,0.7997 -4.6819,4.5965 z"
       style="fill:#765299;fill-rule:evenodd"
       id="path40" />
    <path
       d="m 84.9456,210.4443 c 0.5493,1.7318 -0.0197,2.0637 1.9741,2.7546 4.1574,1.4409 3.4002,-0.8041 3.4394,-0.8325 -1.0753,-1.7774 1.7164,-0.8722 -2.6074,-2.0683 -0.8117,-0.2246 -2.3262,-0.2382 -2.8061,0.1462 z"
       style="fill:#765299;fill-rule:evenodd"
       id="path42" />
    <path
       d="m 85.8455,95.8312 c 0.4092,0.3652 -1.3915,1.5208 2.6458,1.2081 3.6698,-0.2842 2.5149,-1.4665 2.9192,-2.1115 -1.5577,-0.9775 2.3142,-1.5769 -2.8381,-0.9119 -1.6442,0.212 -2.0422,0.814 -2.7269,1.8153 z"
       style="fill:#765299;fill-rule:evenodd"
       id="path44" />
    <path
       d="m 213.6056,94.0246 c 4.036,4.4757 5.2836,0.9567 5.4049,0.9032 -0.8317,-1.3849 1.6609,-1.516 -2.29,-2.0317 -5.3663,-0.7007 -1.9014,0.3137 -3.1149,1.1285 z"
       style="fill:#765299;fill-rule:evenodd"
       id="path46" />
    <path
       d="m 253.7686,180.2352 c 1.6583,-1.2858 3.9067,-2.2448 1.6025,-5.4683 -1.0691,0.6325 -1.6355,0.6231 -2.191,1.9723 -2.0724,5.0339 0.2477,2.9889 0.5885,3.496 z"
       style="fill:#765299;fill-rule:evenodd"
       id="path48" />
    <path
       d="m 58.6398,179.8062 c 0.3511,-0.9528 0.7739,-1.4304 0.1604,-2.7318 -1.7093,-3.6242 0.5346,-1.2883 -2.8704,-1.8962 -0.3198,0.8389 -1.0335,1.3846 -0.233,3.0145 1.7997,3.6652 -0.2307,1.348 2.943,1.6135 z"
       style="fill:#765299;fill-rule:evenodd"
       id="path50" />
    <path
       d="m 185.0986,150.0273 c 4.0777,-0.6468 3.5545,-0.8891 4.1074,-4.9007 -3.6865,0.7715 -3.8893,0.6099 -4.1074,4.9007 z"
       style="fill:#765299;fill-rule:evenodd"
       id="path52" />
    <path
       d="m 260.5633,138.1145 c 0.0584,2.0847 1.993,3.4616 3.8467,3.046 0.0277,-0.0448 4.1623,-2.5969 -1.8322,-3.4857 -1.4873,-0.2207 -1.5305,0.2589 -2.0145,0.4397 z"
       style="fill:#765299;fill-rule:evenodd"
       id="path54" />
    <path
       d="m 83.8957,210.5595 c -0.4056,-1.5851 1.7905,-0.6233 -1.2455,-2.3805 -1.9667,-1.1382 -2.3377,-0.4637 -4.0081,-0.3067 1.0855,3.0933 2.2996,4.0772 5.2536,2.6872 z"
       style="fill:#765299;fill-rule:evenodd"
       id="path56" />
    <path
       d="m 200.0802,94.0246 c 1.7746,0.9341 -2.5518,1.4281 3.0614,0.8266 2.4076,-0.2581 1.4486,-0.2812 2.4524,-1.5585 -1.5446,-1.2824 1.3897,-1.1971 -2.4898,-1.2271 -5.6362,-0.0438 -1.9231,0.8725 -3.024,1.959 z"
       style="fill:#765299;fill-rule:evenodd"
       id="path58" />
    <path
       d="m 253.0096,125.5899 c -0.1373,-3.7292 -0.3181,-4.2253 -2.8896,-5.1732 -0.548,1.1659 -1.2614,0.4261 -0.4745,2.9812 0.8382,2.72 0.8692,1.8721 3.3641,2.192 z"
       style="fill:#765299;fill-rule:evenodd"
       id="path60" />
    <path
       d="m 101.0382,212.6255 c -2.9418,-0.023 -1.9183,0.4786 -2.7503,1.5475 0.7324,0.5498 -1.3805,1.1572 2.8125,1.3305 4.5996,0.1903 1.7372,-0.4489 2.7018,-1.3305 -0.3954,-0.4571 0.4131,-1.5226 -2.764,-1.5475 z"
       style="fill:#765299;fill-rule:evenodd"
       id="path62" />
    <path
       d="m 238.4307,203.3131 c -3.3492,0.9152 -3.8603,0.5227 -4.6405,4.4437 4.3358,-0.3959 4.6062,-0.5923 4.6405,-4.4437 z"
       style="fill:#765299;fill-rule:evenodd"
       id="path64" />
    <path
       d="m 40.2875,144.9245 c 3.4065,-0.2394 4.9028,-0.4261 5.1778,-3.0711 -0.0259,-0.011 -0.4205,-1.7858 -3.1653,-0.2094 -2.1027,1.2076 -1.3109,0.9874 -2.0125,3.2805 z"
       style="fill:#765299;fill-rule:evenodd"
       id="path66" />
    <path
       d="m 33.3537,160.8741 c 8e-4,0.001 -0.2484,2.7848 5.4393,2.1925 -0.7861,-2.2675 0.6781,-1.9144 -2.1513,-2.9095 -3.1663,-1.1134 -2.9566,0.5114 -3.288,0.717 z"
       style="fill:#765299;fill-rule:evenodd"
       id="path68" />
    <path
       d="m 284.6113,150.0563 c 2.6611,5.4761 5.3842,1.7868 5.3891,1.784 -0.5293,-1.0465 1.1382,-1.3349 -2.3449,-2.2726 -1.148,-0.3091 -2.6261,0.0747 -3.0442,0.4886 z"
       style="fill:#765299;fill-rule:evenodd"
       id="path70" />
    <path
       d="m 278.3441,148.2269 c 1.3423,2.4905 2.1433,2.6931 5.384,2.1379 -0.725,-1.9487 0.1065,-2.1459 -2.2709,-2.9669 -3.1262,-1.0793 -2.4371,0.3081 -3.1131,0.829 z"
       style="fill:#765299;fill-rule:evenodd"
       id="path72" />
    <path
       d="m 164.3283,186.3981 c -6.1865,1.9172 -1.6194,8.2356 0.4036,2.8478 1.2443,-3.3141 0.2274,-1.7759 -0.4036,-2.8478 z"
       style="fill:#765299;fill-rule:evenodd"
       id="path74" />
    <path
       d="m 21.6399,151.8403 c 0.6161,0.389 -0.9153,1.2435 2.4998,0.8118 2.1095,-0.2668 2.3438,-1.2653 2.8196,-1.7152 -0.9523,-1.1946 -0.2364,-1.6023 -2.3508,-1.4637 -3.5341,0.232 -2.4882,1.2181 -2.9686,2.3671 z"
       style="fill:#765299;fill-rule:evenodd"
       id="path76" />
    <path
       d="m 130.0064,160.446 c 0.1032,-0.2034 2.3374,-0.1311 0.4522,-3.5111 -1.392,-2.4954 -0.8251,-1.2501 -3.3328,-1.7433 0.4668,3.1371 0.3849,3.3282 2.8806,5.2544 z"
       style="fill:#765299;fill-rule:evenodd"
       id="path78" />
    <path
       d="m 246.9393,191.9147 c 0.2446,0.0497 1.3311,1.621 2.8791,-0.6333 1.4066,-2.0488 0.6338,-2.2316 0.4409,-4.1169 -2.649,0.8607 -3.4252,2.0317 -3.32,4.7502 z"
       style="fill:#765299;fill-rule:evenodd"
       id="path80" />
    <path
       d="m 176.9641,167.9451 c 1.6914,-2.6396 2.7336,-2.3072 0.9211,-5.1407 -3.2117,0.948 -4.6501,3.4621 -0.9211,5.1407 z"
       style="fill:#765299;fill-rule:evenodd"
       id="path82" />
    <path
       d="m 69.5005,108.3858 c 3.4445,-0.4874 3.1976,-0.5721 3.9174,-4.8772 -3.6465,0.8704 -4.07,0.4837 -3.9174,4.8772 z"
       style="fill:#765299;fill-rule:evenodd"
       id="path84" />
    <path
       d="m 272.0659,144.7704 c 0.9677,2.4457 1.8245,2.9827 4.563,3.1238 0.005,-0.02 3.5551,-0.4719 -1.3252,-3.1694 -0.9452,-0.5227 -2.7566,-0.5913 -3.2378,0.0456 z"
       style="fill:#765299;fill-rule:evenodd"
       id="path86" />
    <path
       d="m 279.3392,159.9505 c 1.2105,0.7095 -0.9751,1.6419 2.8173,0.5482 4.1759,-1.204 1.6136,-0.4901 2.3764,-2.3349 -0.3283,-0.1805 0.485,-1.7531 -3.0424,-0.3866 -2.749,1.0647 -1.2333,0.3434 -2.1513,2.1733 z"
       style="fill:#765299;fill-rule:evenodd"
       id="path88" />
    <path
       d="m 191.8863,138.4894 c 2.6683,-0.7119 1.9782,0.5257 3.4371,-1.9449 1.7395,-2.9462 -0.0361,-2.622 -0.59,-3.2537 -2.1892,1.1664 -2.3447,1.9969 -2.8471,5.1986 z"
       style="fill:#765299;fill-rule:evenodd"
       id="path90" />
    <path
       d="m 266.2484,141.9034 c 1.1892,3.099 1.2558,2.6478 4.8588,3.1002 -0.5081,-2.2598 0.1659,-2.3771 -1.7503,-3.4708 -2.7226,-1.5541 -2.9623,0.2989 -3.1085,0.3706 z"
       style="fill:#765299;fill-rule:evenodd"
       id="path92" />
    <path
       d="m 144.8881,183.7569 c -0.5684,-3.4869 -0.0865,-3.6349 -3.1376,-4.9115 -2.696,3.1016 -0.0164,4.2616 3.1376,4.9115 z"
       style="fill:#765299;fill-rule:evenodd"
       id="path94" />
    <path
       d="m 193.3424,94.9659 c 3.4552,0.1329 2.8398,0.7221 5.2347,-0.9413 -1.2246,-2.8243 -1.0392,-2.2028 -5.0586,-1.5308 z"
       style="fill:#765299;fill-rule:evenodd"
       id="path96" />
    <path
       d="m 214.8954,214.173 c 3.3436,1.4235 4.0993,0.6914 5.3558,-1.9109 -1.1341,-0.4166 -1.0824,-1.0127 -3.1187,-0.4868 -4.4462,1.148 -1.7216,0.7975 -2.2371,2.3977 z"
       style="fill:#765299;fill-rule:evenodd"
       id="path98" />
    <path
       d="m 194.264,214.173 c 0.9085,0.9659 -2.191,1.3477 2.5912,1.5438 4.8882,0.2006 1.6927,-0.4545 2.8114,-1.5438 -0.006,-0.004 -0.6353,-3.3441 -5.4026,0 z"
       style="fill:#765299;fill-rule:evenodd"
       id="path100" />
    <path
       d="m 58.8695,125.4129 c 1.8819,-0.308 1.7654,0.2453 2.801,-1.3382 2.4273,-3.7113 0.0853,-3.0732 -0.3332,-3.551 -2.4726,1.1188 -2.4905,1.3344 -2.4678,4.8892 z"
       style="fill:#765299;fill-rule:evenodd"
       id="path102" />
    <path
       d="m 272.9076,162.8912 c 3.3674,1.0763 3.939,-0.1838 5.2949,-2.0171 -0.0584,-0.0361 0.3209,-1.9792 -3.2537,-0.6248 -2.9661,1.1239 -1.3416,0.3598 -2.0412,2.6419 z"
       style="fill:#765299;fill-rule:evenodd"
       id="path104" />
    <path
       d="m 73.7577,103.3831 c 4.254,-0.3793 4.2744,-0.1578 5.184,-4.2959 -3.9143,0.9346 -4.1528,0.9556 -5.184,4.2959 z"
       style="fill:#765299;fill-rule:evenodd"
       id="path106" />
    <path
       d="m 20.549,156.3572 2.7879,1.9088 c 1.1034,0.3631 1.7172,0.2735 2.9087,0.222 -1.8163,-5.1665 -5.4231,-4.0841 -5.6966,-2.1308 z"
       style="fill:#765299;fill-rule:evenodd"
       id="path108" />
    <path
       d="m 246.2405,113.5974 c -0.041,-3.0132 -0.9311,-3.7492 -3.2258,-4.7766 -1.7098,2.4955 -0.6417,4.8619 3.2258,4.7766 z"
       style="fill:#765299;fill-rule:evenodd"
       id="path110" />
    <path
       d="m 106.3719,93.1212 c 1.5352,2.4437 3.1032,2.2788 5.4744,1.2545 -0.9078,-2.9523 1.3472,-1.4443 -1.7305,-2.2676 -2.9083,-0.7779 -3.517,0.8712 -3.7439,1.0131 z"
       style="fill:#765299;fill-rule:evenodd"
       id="path112" />
    <path
       d="m 27.8799,150.3085 c 3.0409,0.6499 4.2362,0.5941 5.3043,-2.0816 -2.5105,-1.9119 -4.7392,-1.0407 -5.3043,2.0816 z"
       style="fill:#765299;fill-rule:evenodd"
       id="path114" />
    <path
       d="m 178.0534,128.1947 c 1.8571,2.9143 3.9999,2.8232 5.8795,0.1454 -1.8701,-1.4501 1.7851,-0.7531 -2.466,-1.0181 -3.099,-0.1931 -2.2378,-0.1199 -3.4135,0.8727 z"
       style="fill:#765299;fill-rule:evenodd"
       id="path116" />
    <path
       d="m 52.0856,136.6136 c 0.4453,0.1483 0.3941,1.62 2.5244,-0.4161 1.1928,-1.14 1.1887,-1.6363 1.6448,-3.5676 -3.4998,0.4525 -4.9771,0.9221 -4.1692,3.9837 z"
       style="fill:#765299;fill-rule:evenodd"
       id="path118" />
    <path
       d="m 46.3178,141.5781 c 3.6437,-0.8447 4.774,-0.7223 4.6856,-3.6795 -3.6882,-0.7449 -3.952,-0.2858 -4.6856,3.6795 z"
       style="fill:#765299;fill-rule:evenodd"
       id="path120" />
    <path
       d="m 261.6222,169.4547 c 2.7272,0.1892 3.5991,-0.6827 4.5993,-3.0386 -1.9902,-0.3665 -2.0509,-1.1682 -4.0198,0.1872 -2.3342,1.6063 -0.6231,2.6826 -0.5795,2.8514 z"
       style="fill:#765299;fill-rule:evenodd"
       id="path122" />
    <path
       d="m 61.5445,119.1445 c 3.4222,0.4333 3.9973,-0.5109 4.0818,-4.1018 -3.5264,-0.0195 -3.5484,1.0389 -4.0818,4.1018 z"
       style="fill:#765299;fill-rule:evenodd"
       id="path124" />
    <path
       d="m 99.3721,94.0246 c 0.3736,0.2599 -0.6537,1.1398 2.6353,1.0796 4.3981,-0.0807 1.7085,-0.3606 2.7705,-1.0796 -1.7815,-3.2747 -5.1925,-1.9677 -5.4058,0 z"
       style="fill:#765299;fill-rule:evenodd"
       id="path126" />
    <path
       d="m 72.6961,203.7157 c -0.4556,-3.5592 0.0371,-4.2755 -3.9833,-4.7441 -0.0102,3.9259 0.7106,3.762 3.9833,4.7441 z"
       style="fill:#765299;fill-rule:evenodd"
       id="path128" />
    <path
       d="m 189.1217,144.2172 c 2.8937,-0.6729 4.1313,-2.1722 2.3142,-4.9944 -1.1029,0.5569 -0.907,-0.6692 -2.138,1.4911 -1.6322,2.865 -0.6627,1.1872 -0.1762,3.5033 z"
       style="fill:#765299;fill-rule:evenodd"
       id="path130" />
    <path
       d="m 150.952,128.1947 c 0.6655,1.0445 -0.1398,1.7351 2.5956,1.8058 3.6667,0.0947 2.0729,-0.4786 2.9046,-1.6478 -1.3328,-0.8341 1.9772,-1.1158 -2.9925,-1.0499 -3.9602,0.0522 -1.0481,-0.3404 -2.5077,0.8919 z"
       style="fill:#765299;fill-rule:evenodd"
       id="path132" />
    <path
       d="m 164.5027,128.1947 c 0.6655,1.0445 -0.1401,1.7351 2.5956,1.8058 3.6667,0.0947 2.0729,-0.4786 2.9044,-1.6478 -1.3326,-0.8341 1.9774,-1.1158 -2.9922,-1.0499 -3.9602,0.0522 -1.0482,-0.3404 -2.5078,0.8919 z"
       style="fill:#765299;fill-rule:evenodd"
       id="path134" />
    <path
       d="m 61.6941,186.4534 c -0.3839,-3.1179 -0.0784,-3.0596 -2.1508,-5.3315 -0.7357,0.6018 -1.9398,0.6687 -1.3567,2.7009 0.8079,2.8165 1.4863,2.0747 3.5075,2.6306 z"
       style="fill:#765299;fill-rule:evenodd"
       id="path136" />
    <path
       d="m 168.8516,179.766 c 2.231,-0.9444 1.0412,1.2082 2.5057,-2.0296 1.1352,-2.5103 0.3716,-1.4305 0.4676,-3.3392 -2.9961,1.0181 -4.3745,2.7072 -2.9733,5.3688 z"
       style="fill:#765299;fill-rule:evenodd"
       id="path138" />
    <path
       d="m 55.5086,174.0233 c 0.0696,-3.4539 -0.7555,-3.9241 -4.2701,-4.3553 0.5798,3.0168 0.9641,4.4879 4.2701,4.3553 z"
       style="fill:#765299;fill-rule:evenodd"
       id="path140" />
    <path
       d="m 45.9631,166.2942 c 0.6612,2.6442 -0.9907,0.631 1.273,2.4268 1.1369,0.9019 1.7602,0.7421 3.0329,0.9462 0.4643,-3.6585 1.738,-1.0186 -0.9388,-3.1671 -1.6232,-1.3029 -2.3087,-0.6302 -3.3671,-0.2059 z"
       style="fill:#765299;fill-rule:evenodd"
       id="path142" />
    <path
       d="m 213.327,214.173 c -2.4048,-2.7941 -3.9193,-1.5744 -5.5576,0 0.8768,0.8051 -1.7703,1.2253 2.6439,1.3213 4.2076,0.0917 2.5121,-1.0304 2.9137,-1.3213 z"
       style="fill:#765299;fill-rule:evenodd"
       id="path144" />
    <path
       d="m 242.0447,108.4257 c 0.0945,-4.1663 -0.1987,-3.9797 -4.1399,-4.8216 0.8729,3.6298 0.9894,4.0826 4.1399,4.8216 z"
       style="fill:#765299;fill-rule:evenodd"
       id="path146" />
    <path
       d="m 34.7788,147.3234 c 0.0051,0.002 1.5062,2.6348 4.7725,-1.8066 -2.9121,-3.5374 -4.0934,-0.4448 -4.7725,1.8066 z"
       style="fill:#765299;fill-rule:evenodd"
       id="path148" />
    <path
       d="m 133.6201,166.224 c 1.7167,-2.7843 0.2435,-4.3729 -2.2888,-4.9286 -0.4108,1.8166 -1.1531,0.0942 -0.1754,2.8711 1.2197,3.4642 0.1754,1.286 2.4642,2.0575 z"
       style="fill:#765299;fill-rule:evenodd"
       id="path150" />
    <path
       d="m 227.0254,96.2407 c 0.0459,2.6997 1.1268,3.1914 5.0096,3.2239 -0.5298,-1.8588 0.0356,-1.7927 -1.7136,-2.8688 -2.1838,-1.3433 -1.1327,-0.6942 -3.296,-0.3551 z"
       style="fill:#765299;fill-rule:evenodd"
       id="path152" />
    <path
       d="m 127.5975,154.642 c -0.6249,-6.2738 -1.2294,-4.6042 -3.0112,-5.3883 -1.6648,2.9044 0.005,4.1827 3.0112,5.3883 z"
       style="fill:#765299;fill-rule:evenodd"
       id="path154" />
    <path
       d="m 221.3275,212.3664 c 0.0348,0.0263 -0.3321,2.0982 3.2739,0.8322 2.0532,-0.7208 1.4384,-0.95 1.8863,-2.6391 -2.7498,-1.1162 -3.919,0.2553 -5.1602,1.8069 z"
       style="fill:#765299;fill-rule:evenodd"
       id="path156" />
    <path
       d="m 237.734,103.402 c -0.7608,-3.479 -0.4617,-3.4823 -4.8683,-4.1742 0.769,3.7097 1.1685,3.5842 4.8683,4.1742 z"
       style="fill:#765299;fill-rule:evenodd"
       id="path158" />
    <path
       d="m 136.9427,172.2218 c 0.8266,-1.172 1.7482,-0.7139 0.3841,-3.2178 -1.1022,-2.0233 -0.9173,-1.7925 -3.2391,-1.3388 0.1308,2.7295 0.8391,3.6394 2.855,4.5566 z"
       style="fill:#765299;fill-rule:evenodd"
       id="path160" />
    <path
       d="m 147.1705,189.8103 c 1.7058,-2.8161 0.4559,-4.2137 -2.3138,-5.0524 -0.7721,1.9137 -1.0584,1.1106 0.1677,3.4466 1.6924,3.2234 -0.1324,0.5579 2.1461,1.6058 z"
       style="fill:#765299;fill-rule:evenodd"
       id="path162" />
    <path
       d="m 68.469,198.0014 c -0.4327,-3.9298 -0.5188,-4.8993 -4.0664,-4.2637 0.5252,2.9689 0.7006,3.7546 4.0664,4.2637 z"
       style="fill:#765299;fill-rule:evenodd"
       id="path164" />
    <path
       d="m 56.0778,131.7718 c 3.1564,-0.706 3.9346,-2.3595 2.8353,-5.1733 -2.5843,0.9229 -3.1636,1.0538 -2.8353,5.1733 z"
       style="fill:#765299;fill-rule:evenodd"
       id="path166" />
    <path
       d="m 285.6345,157.2607 c 0.5754,0.4806 -0.5223,1.3346 2.4461,1.0409 2.4288,-0.2402 2.5118,-1.4542 2.9587,-1.9444 -2.1808,-2.666 -4.1344,-0.8435 -5.4048,0.9035 z"
       style="fill:#765299;fill-rule:evenodd"
       id="path168" />
    <path
       d="m 178.3067,161.3561 c 3.8132,0.78 1.2501,1.4529 2.9899,-0.6656 0.9285,-1.1305 0.7485,-2.0163 0.9375,-3.3671 -2.9223,-0.0243 -3.4286,0.5544 -3.9274,4.0327 z"
       style="fill:#765299;fill-rule:evenodd"
       id="path170" />
    <path
       d="m 147.7562,191.2709 c 0.2719,2.2056 -0.6446,2.8381 3.0278,4.2913 0.1967,-0.4675 1.7175,-1.3077 -0.2507,-3.6564 -2.1328,-2.5459 -0.0207,-1.3455 -2.7771,-0.6349 z"
       style="fill:#765299;fill-rule:evenodd"
       id="path172" />
    <path
       d="m 65.4312,113.4309 c 3.4022,0.6041 3.4524,-0.813 4.172,-4.2961 -3.0739,0.4801 -3.8271,0.7964 -4.172,4.2961 z"
       style="fill:#765299;fill-rule:evenodd"
       id="path174" />
    <path
       d="m 123.6829,148.2051 c 0.552,-1.231 1.4921,-0.4287 0.1741,-2.802 -1.1124,-2.003 -1.1895,-1.7362 -3.5116,-1.4634 0.7839,3.2478 0.2873,3.4372 3.3375,4.2654 z"
       style="fill:#765299;fill-rule:evenodd"
       id="path176" />
    <path
       d="m 165.9495,185.7472 c 2.2292,-1.4625 2.865,-2.3006 2.4916,-5.225 -3.5952,1.3244 -4.776,2.9984 -2.4916,5.225 z"
       style="fill:#765299;fill-rule:evenodd"
       id="path178" />
    <path
       d="m 141.1292,178.0782 c -0.3349,-3.6539 -0.5743,-4.2528 -3.0539,-5.2659 -1.5134,3.0586 -0.201,4.3728 3.0539,5.2659 z"
       style="fill:#765299;fill-rule:evenodd"
       id="path180" />
    <path
       d="m 182.2743,156.2292 c 2.6593,-0.9173 2.8972,-1.4079 3.0903,-5.2759 -3.1087,1.0007 -4.2831,2.163 -3.0903,5.2759 z"
       style="fill:#765299;fill-rule:evenodd"
       id="path182" />
    <path
       d="m 117.5437,136.5821 c -0.6945,-3.9783 -0.5126,-3.9125 -4.0967,-5.0436 0.6505,3.6844 0.3521,4.3622 4.0967,5.0436 z"
       style="fill:#765299;fill-rule:evenodd"
       id="path184" />
    <path
       d="m 117.5517,213.0772 c -3.5943,0.0213 -3.0824,-0.6363 -5.6347,1.0958 1.6844,2.2416 1.3626,1.4558 5.1584,1.3784 z"
       style="fill:#765299;fill-rule:evenodd"
       id="path186" />
    <path
       d="m 64.631,192.1595 c 0.1902,-2.698 -0.4023,-3.839 -3.1592,-4.8933 -0.9224,2.4207 -0.1447,5.0206 3.1592,4.8933 z"
       style="fill:#765299;fill-rule:evenodd"
       id="path188" />
    <path
       d="m 227.6789,210.7075 c 2.8473,1.1198 4.3034,0.2223 5.1843,-2.73 -3.1933,-0.2443 -4.2038,-0.4763 -5.1843,2.73 z"
       style="fill:#765299;fill-rule:evenodd"
       id="path190" />
    <path
       d="m 157.7462,197.4247 c 3.5622,-0.7757 3.6209,-1.578 4.0337,-5.0027 -3.6092,0.728 -3.3241,1.4563 -4.0337,5.0027 z"
       style="fill:#765299;fill-rule:evenodd"
       id="path192" />
    <path
       d="m 266.7846,165.1603 c 2.6952,1.5738 4.4737,1.4568 5.079,-2.6122 -3.385,0.2233 -3.5377,0.2758 -5.079,2.6122 z"
       style="fill:#765299;fill-rule:evenodd"
       id="path194" />
    <path
       d="m 252.6675,127.1596 c -0.2597,0.9078 -0.9124,1.0932 0.1585,2.8908 1.2399,2.0814 0.6783,1.1903 2.7794,1.8077 0.0333,-3.3216 -0.0927,-5.1489 -2.9379,-4.6985 z"
       style="fill:#765299;fill-rule:evenodd"
       id="path196" />
    <path
       d="m 259.6709,136.965 c 0.0568,-2.8199 -1.2003,-3.7602 -4.1492,-4.1756 0.4983,3.3943 0.802,4.4063 4.1492,4.1756 z"
       style="fill:#765299;fill-rule:evenodd"
       id="path198" />
    <path
       d="m 206.5758,214.173 c -0.4082,-0.3194 0.821,-1.0169 -2.5021,-1.1373 -4.6933,-0.17 -1.8494,0.4136 -2.9241,1.1373 1.5866,1.9359 -0.0989,1.4107 3.837,1.4107 0.9237,0 1.5091,-1.3068 1.5892,-1.4107 z"
       style="fill:#765299;fill-rule:evenodd"
       id="path200" />
    <path
       d="m 144.1501,128.3527 c 1.7206,2.2601 4.0465,2.5932 5.6424,0 -0.8648,-0.5455 -0.096,-1.064 -2.6414,-1.0374 -4.4911,0.0474 -1.7802,0.3216 -3.001,1.0374 z"
       style="fill:#765299;fill-rule:evenodd"
       id="path202" />
    <path
       d="m 248.697,119.801 c 0.6392,-0.8775 1.3006,-1.0214 0.8564,-2.607 -0.6986,-2.4922 -1.1908,-2.3869 -3.4473,-1.9242 0.2069,2.9564 0.6801,2.8729 2.5909,4.5312 z"
       style="fill:#765299;fill-rule:evenodd"
       id="path204" />
    <path
       d="m 92.3344,94.7234 c 2.5792,1.7961 3.9233,1.371 5.8134,-0.6988 -1.6545,-1.3613 -5.2869,-1.6965 -5.8134,0.6988 z"
       style="fill:#765299;fill-rule:evenodd"
       id="path206" />
    <path
       d="m 243.0562,197.8308 c 3.085,0.0164 3.6319,-0.9203 4.1482,-4.1945 -3.2476,0.0266 -3.6371,0.9982 -4.1482,4.1945 z"
       style="fill:#765299;fill-rule:evenodd"
       id="path208" />
    <path
       d="m 79.5455,99.363 c 3.5979,0.0658 3.9579,-0.1393 5.4304,-3.0197 -3.013,-0.6273 -4.5167,0.0756 -5.4304,3.0197 z"
       style="fill:#765299;fill-rule:evenodd"
       id="path210" />
    <path
       d="m 77.9095,208.0566 c -0.967,-4.068 -0.9639,-3.8342 -4.901,-4.1092 1.1707,2.9477 1.4445,3.2918 4.901,4.1092 z"
       style="fill:#765299;fill-rule:evenodd"
       id="path212" />
    <path
       d="m 171.5146,128.3527 c 1.5484,2.4063 3.8605,2.4677 5.3793,0 -0.8763,-0.5529 -0.084,-1.061 -2.6388,-1.0279 -4.2363,0.0545 -1.727,0.3544 -2.7405,1.0279 z"
       style="fill:#765299;fill-rule:evenodd"
       id="path214" />
    <path
       d="m 157.9638,128.3527 c 1.5488,2.4063 3.8606,2.4677 5.3794,0 -0.8763,-0.5529 -0.084,-1.061 -2.6388,-1.0279 -4.2363,0.0545 -1.727,0.3544 -2.7406,1.0279 z"
       style="fill:#765299;fill-rule:evenodd"
       id="path216" />
    <path
       d="m 107.4554,213.0834 c -2.193,0.0456 -1.2963,0.4786 -2.2547,1.0896 1.268,0.6586 1.9955,3.6116 5.4262,0 -1.5854,-0.9442 2.16,-1.2 -3.1715,-1.0896 z"
       style="fill:#765299;fill-rule:evenodd"
       id="path218" />
    <path
       d="m 130.5994,128.3527 c 1.9357,2.5425 3.3859,2.3451 5.3579,0 -0.8543,-0.4758 -0.4041,-0.9665 -2.3469,-1.0016 -4.4749,-0.0811 -1.8617,0.3268 -3.011,1.0016 z"
       style="fill:#765299;fill-rule:evenodd"
       id="path220" />
    <path
       d="m 117.062,128.3527 c 1.9221,2.5512 3.3784,2.3379 5.3446,0 -0.8545,-0.4758 -0.4044,-0.9665 -2.3475,-1.0016 -4.4997,-0.0816 -1.8478,0.3217 -2.9971,1.0016 z"
       style="fill:#765299;fill-rule:evenodd"
       id="path222" />
    <path
       d="m 27.1805,158.1638 c 1.0758,2.5167 2.631,3.0555 5.12,1.8069 -1.1879,-2.5103 -2.8767,-3.0939 -5.12,-1.8069 z"
       style="fill:#765299;fill-rule:evenodd"
       id="path224" />
    <path
       d="m 185.1672,128.3527 c 1.5346,2.4457 3.846,2.4206 5.3845,0 -2.3121,-1.5124 -2.7352,-1.6871 -5.3845,0 z"
       style="fill:#765299;fill-rule:evenodd"
       id="path226" />
    <path
       d="m 123.965,128.3527 c 1.3547,2.6316 3.7262,2.2347 5.277,0 -2.1633,-1.3368 -2.6947,-1.8571 -5.277,0 z"
       style="fill:#765299;fill-rule:evenodd"
       id="path228" />
    <path
       d="m 137.5155,128.3527 c 1.3546,2.6316 3.7261,2.2347 5.2769,0 -2.1633,-1.3368 -2.6946,-1.8571 -5.2769,0 z"
       style="fill:#765299;fill-rule:evenodd"
       id="path230" />
    <path
       d="m 115.6913,128.3527 c -2.4007,-1.4709 -0.8507,-1.1818 -4.4614,-0.7091 0.3588,4.1574 2.4893,3.7594 4.4614,0.7091 z"
       style="fill:#765299;fill-rule:evenodd"
       id="path232" />
    <path
       d="m 256.4789,173.5211 c 1.5592,0.5524 0.2886,1.2796 2.1252,-0.4553 1.1205,-1.0583 1.2527,-1.5244 1.8775,-3.344 -3.1897,0.6084 -4.8588,1.444 -4.0027,3.7993 z"
       style="fill:#765299;fill-rule:evenodd"
       id="path234" />
  </g>
</svg>
